<svg xmlns="http://www.w3.org/2000/svg" width="26.266" height="18.357" viewBox="0 0 26.266 18.357"><defs><style>.a{fill:#343434;}</style></defs><path class="a" d="M25.725,8.258a3.292,3.292,0,0,0-2.286-2.286c-2.047-.549-10.287-.549-10.287-.549s-8.219-.011-10.287.549A3.292,3.292,0,0,0,.579,8.258a34.21,34.21,0,0,0-.571,6.355,34.21,34.21,0,0,0,.571,6.331,3.292,3.292,0,0,0,2.286,2.286c2.045.55,10.287.55,10.287.55s8.218,0,10.287-.55a3.292,3.292,0,0,0,2.286-2.286,34.21,34.21,0,0,0,.547-6.331,34.21,34.21,0,0,0-.547-6.355Zm-15.2,10.287V10.67l6.858,3.944Z" transform="translate(-0.007 -5.424)"/></svg>